<svg xmlns="http://www.w3.org/2000/svg" width="24" height="24" class="icon_svg"><path d="M12 23C5.925 23 1 18.075 1 12S5.925 1 12 1s11 4.925 11 11a11 11 0 0 1-11 11Zm0-20a9 9 0 1 0 0 18 9 9 0 0 0 0-18Zm-7.48 7.56a.43.43 0 0 1 .41-.56h14.14a.43.43 0 0 1 .41.56l-.85 2.53a3 3 0 0 1-2.8 2 3 3 0 0 1-2.8-2l-.28-.85a.8.8 0 0 0-.75-.54.8.8 0 0 0-.75.54l-.28.85a3 3 0 0 1-2.8 2 3 3 0 0 1-2.8-2l-.85-2.53Zm3.18 5.63a16.3 16.3 0 0 0 8.6 0 .25.25 0 0 1 .26.39A5.71 5.71 0 0 1 12 19a5.71 5.71 0 0 1-4.56-2.42.25.25 0 0 1 .26-.39Z"></path></svg>